# xmcd
#
# Track frame offsets:
#	150
#	13997
#	25385
#	41590
#	55670
#	70930
#	88400
#	101635
#
# Disc length: 1545 seconds
#
# Revision: 2
# Processed by: cddbd v1.5.1PL2 Copyright (c) Steve Scherf et al.
# Submitted via: dBpowerAMP V4.0
#
DISCID=6b060708
DTITLE=Various Artist - Welocome To Straitland
DYEAR=1900
DGENRE=country
TTITLE0=George Strait - Easy Com Easy Go
TTITLE1=Patty Loveless - Timber I'm Falling In Love
TTITLE2=The Maverics - All That Heaven Will Allow
TTITLE3=Delbert McClinton - Before You Accuse Me
TTITLE4=Kelly Willis - I Don't Want To Love You - But I Do
TTITLE5=Steve Wariner - I Got Dreams
TTITLE6=Lorrie Morgan - Except For Monday
TTITLE7=Vince Gill - One More Last Chance
EXTD=
EXTT0=
EXTT1=
EXTT2=
EXTT3=
EXTT4=
EXTT5=
EXTT6=
EXTT7=
PLAYORDER=
